<svg xmlns="http://www.w3.org/2000/svg" xmlns:xlink="http://www.w3.org/1999/xlink" width="140" height="140" viewBox="0 0 140 140">
  <defs>
    <style>
      .cls-1 {
        fill: #fff;
      }

      .cls-2 {
        fill: #0a194e;
      }

      .cls-3 {
        fill: #3be5bf;
      }

      .cls-4 {
        filter: url(#Ellipse_9);
      }
    </style>
    <filter id="Ellipse_9" x="0" y="0" width="140" height="140" filterUnits="userSpaceOnUse">
      <feOffset dy="10" input="SourceAlpha"/>
      <feGaussianBlur stdDeviation="10" result="blur"/>
      <feFlood flood-color="#0a194e" flood-opacity="0.102"/>
      <feComposite operator="in" in2="blur"/>
      <feComposite in="SourceGraphic"/>
    </filter>
  </defs>
  <g id="Group_7201" data-name="Group 7201" transform="translate(-109 -3893)">
    <g id="Group_7197" data-name="Group 7197" transform="translate(0 -22.65)">
      <g class="cls-4" transform="matrix(1, 0, 0, 1, 109, 3915.65)">
        <circle id="Ellipse_9-2" data-name="Ellipse 9" class="cls-1" cx="40" cy="40" r="40" transform="translate(30 20)"/>
      </g>
      <g id="_5DtMwN.tif" data-name="5DtMwN.tif" transform="translate(158 3954.65)">
        <g id="Group_7196" data-name="Group 7196">
          <path id="Path_2563" data-name="Path 2563" class="cls-2" d="M369.2,242.75c0-.7,0-1.4,0-2.1a2.438,2.438,0,0,1,1.817-2.508q2.395-.752,4.792-1.5,6.7-2.092,13.39-4.188a3.034,3.034,0,0,1,1.885-.007q9.07,2.847,18.147,5.677A2.442,2.442,0,0,1,411.1,240.7a64.232,64.232,0,0,1-.57,8.494A37.781,37.781,0,0,1,406.059,263a26.933,26.933,0,0,1-6.727,7.764,39.3,39.3,0,0,1-7.573,4.512c-.161.076-.322.151-.483.228a2.493,2.493,0,0,1-2.235.01,41.922,41.922,0,0,1-7.437-4.258,26.925,26.925,0,0,1-6.989-7.626,34.341,34.341,0,0,1-4.085-10.318A58.353,58.353,0,0,1,369.2,242.75Zm37.027.762c.014-.3.01-.6.048-.89s-.066-.425-.364-.517c-5.124-1.589-10.242-3.2-15.366-4.784a1.4,1.4,0,0,0-.783,0c-5.124,1.588-10.243,3.195-15.366,4.784-.295.091-.384.207-.371.512a59.487,59.487,0,0,0,.651,7.022,34.251,34.251,0,0,0,2.655,9.024,22.474,22.474,0,0,0,6.246,8.078,30.761,30.761,0,0,0,6.377,3.879.533.533,0,0,0,.422-.014c1.507-.83,3.039-1.62,4.5-2.528a20.664,20.664,0,0,0,5.093-4.58,25.779,25.779,0,0,0,4.717-9.5A45.962,45.962,0,0,0,406.226,243.513Z" transform="translate(-369.198 -232.302)"/>
          <path id="Path_2564" data-name="Path 2564" class="cls-3" d="M494.849,343.408l-16.313,16.313c-.474-.994-.994-1.979-1.423-3a26.682,26.682,0,0,1-1.992-8.311c-.066-.84-.086-1.684-.142-2.526-.015-.233.064-.327.287-.4q6.443-2,12.882-4.019a.741.741,0,0,1,.412-.015Q491.708,342.421,494.849,343.408Z" transform="translate(-467.434 -333.647)"/>
          <path id="Path_2565" data-name="Path 2565" class="cls-3" d="M603.63,408.254c-.134,1.415-.224,2.836-.411,4.244a26.254,26.254,0,0,1-2.628,8.461,23.134,23.134,0,0,1-6.96,8.353c-1.009.74-2.13,1.329-3.209,1.972a.5.5,0,0,1-.417.03,24.646,24.646,0,0,1-5.4-4.051.127.127,0,0,1-.032-.055l18.956-18.955Z" transform="translate(-569.217 -395.706)"/>
        </g>
      </g>
    </g>
  </g>
</svg>
