<svg xmlns="http://www.w3.org/2000/svg" xmlns:xlink="http://www.w3.org/1999/xlink" width="140" height="140" viewBox="0 0 140 140">
  <defs>
    <style>
      .cls-1 {
        fill: #fff;
      }

      .cls-2 {
        fill: #0a194e;
      }

      .cls-3 {
        fill: #3be5bf;
      }

      .cls-4 {
        filter: url(#Ellipse_9);
      }
    </style>
    <filter id="Ellipse_9" x="0" y="0" width="140" height="140" filterUnits="userSpaceOnUse">
      <feOffset dy="10" input="SourceAlpha"/>
      <feGaussianBlur stdDeviation="10" result="blur"/>
      <feFlood flood-color="#0a194e" flood-opacity="0.102"/>
      <feComposite operator="in" in2="blur"/>
      <feComposite in="SourceGraphic"/>
    </filter>
  </defs>
  <g id="Group_7202" data-name="Group 7202" transform="translate(-1117 -3922)">
    <g id="Group_7198" data-name="Group 7198" transform="translate(1147 3942)">
      <g class="cls-4" transform="matrix(1, 0, 0, 1, -30, -20)">
        <circle id="Ellipse_9-2" data-name="Ellipse 9" class="cls-1" cx="40" cy="40" r="40" transform="translate(30 20)"/>
      </g>
      <g id="Group_7199" data-name="Group 7199" transform="translate(-341.61 -425.455)">
        <path id="Path_2566" data-name="Path 2566" class="cls-2" d="M379.2,478.188a25.971,25.971,0,0,0-9.462,2.091,1.5,1.5,0,0,1-1.622-.16,15.568,15.568,0,0,0-7.271-2.779c-1.344-.186-2.706-.243-4.06-.344a1.207,1.207,0,0,1-1.156-1.022,2.817,2.817,0,0,1,.09-1.142A87.73,87.73,0,0,1,359.5,465.1a20.746,20.746,0,0,1,5.42-7.3,17.251,17.251,0,0,1,6.945-3.373,34.108,34.108,0,0,1,3.716-.642c1.246-.158,2.5-.224,3.758-.316.28-.021.421-.107.407-.412-.018-.4-.009-.8,0-1.205a1.361,1.361,0,0,1,1.3-1.393,1.334,1.334,0,0,1,1.467,1.152,6.641,6.641,0,0,1,.066,1.326c-.023.43.147.53.545.537a32.928,32.928,0,0,1,7.477.966,17.4,17.4,0,0,1,11.294,8.812,56.543,56.543,0,0,1,3.77,8.759c.322.9.584,1.833.947,2.719.547,1.335-.346,2.171-1.548,2.191a20.7,20.7,0,0,0-9.469,2.3,12.356,12.356,0,0,0-1.41.905,1.427,1.427,0,0,1-1.541.171,19.374,19.374,0,0,0-5.789-1.7c-1.23-.177-2.472-.284-3.711-.393C382.591,478.154,379.649,478.158,379.2,478.188Z" transform="translate(0 0)"/>
        <path id="Path_2567" data-name="Path 2567" class="cls-3" d="M548.967,539.4a4.725,4.725,0,0,0-.054-.516c-.665-2.855-1.284-5.723-2.017-8.561a30.977,30.977,0,0,0-2.975-7.446,9.6,9.6,0,0,0-3.455-3.808,1.58,1.58,0,0,0-.722-.214q-1.441-.036-2.883,0a1.687,1.687,0,0,0-.766.216,7.7,7.7,0,0,0-2.35,2.115,24.784,24.784,0,0,0-3.328,6.716,73.347,73.347,0,0,0-2.492,9.6c-.125.608-.24,1.217-.377,1.917A36.969,36.969,0,0,1,548.967,539.4Z" transform="translate(-157.13 -62.493)"/>
        <path id="Path_2568" data-name="Path 2568" class="cls-1" d="M403.436,541.223a3.624,3.624,0,0,0,.119-.361c.294-1.4.58-2.8.878-4.2a54.435,54.435,0,0,1,2.93-9.821,17.947,17.947,0,0,1,3.467-5.6,2.649,2.649,0,0,0,.231-.342,1.118,1.118,0,0,0-.266-.033c-1.041.19-2.092.341-3.119.587a14.244,14.244,0,0,0-8.9,6.082,30.319,30.319,0,0,0-2.825,5.449c-.682,1.686-1.285,3.4-1.917,5.109-.071.193-.2.425.173.473.538.069,1.073.163,1.612.227a20.741,20.741,0,0,1,5.221,1.364C401.836,540.474,402.607,540.852,403.436,541.223Z" transform="translate(-35.042 -64.344)"/>
        <path id="Path_2569" data-name="Path 2569" class="cls-1" d="M712.174,520.719l-.053.1c.089.119.174.241.267.357.439.548.915,1.07,1.313,1.646a27.827,27.827,0,0,1,3.486,7.773,88.436,88.436,0,0,1,2.245,9.3c.077.4.174.794.279,1.265a23.81,23.81,0,0,1,9.495-2.762,2.505,2.505,0,0,0-.062-.346,56.419,56.419,0,0,0-3.988-9.406,15,15,0,0,0-4.715-5.216,17.23,17.23,0,0,0-6.6-2.464C713.292,520.867,712.732,520.8,712.174,520.719Z" transform="translate(-325.808 -64.213)"/>
      </g>
    </g>
  </g>
</svg>
