<svg xmlns="http://www.w3.org/2000/svg" width="206.506" height="47.958" viewBox="0 0 206.506 47.958"><defs><style>.a{fill:#3be5bf;}.b{fill:#184c9b;}.b,.c{stroke:rgba(0,0,0,0);}.c{fill:#002a6a;}</style></defs><path class="a" d="M109.719,57.734a3.014,3.014,0,1,0-3.014-3.014,3.014,3.014,0,0,0,3.014,3.014M124,72.654c0-.108,0-.216-.007-.324q-.006-.206-.015-.412c0-.1-.009-.19-.014-.286q-.012-.213-.028-.426-.011-.143-.023-.287-.018-.2-.039-.4-.017-.162-.036-.325t-.044-.349q-.026-.2-.055-.393-.02-.133-.041-.266-.039-.245-.084-.49-.014-.078-.029-.157l0-.019q-.056-.3-.119-.589l-.006-.028c-.074-.34-.152-.679-.24-1.015q-.033-.127-.068-.253s-.009-.028-.024-.067a24.167,24.167,0,0,0-3.664-7.617l-.154-.212a5.5,5.5,0,0,0-1.644-1.36,2.96,2.96,0,0,0-3.643,4.079,3.01,3.01,0,0,0,.365.581l-.009.008a18.9,18.9,0,0,1,3.561,9.126c.009.085.021.169.029.254A18.575,18.575,0,0,1,115.8,81.758a17.9,17.9,0,0,1-3.051,4,18.44,18.44,0,0,1-7.913,4.606q-.543.149-1.094.263a18.207,18.207,0,0,1-11.609-1.38l-.016-.008q-.173-.084-.345-.172l-.081-.042q-.15-.078-.3-.158l-.1-.056c-.1-.053-.194-.107-.29-.163l-.08-.047c-.106-.062-.212-.124-.317-.188L90.59,88.4q-.742-.454-1.448-.987a18.249,18.249,0,0,1-3.085-2.959l-.009-.01c-.084-.1-.167-.206-.248-.31l-.073-.093c-.059-.076-.117-.153-.175-.23l-.126-.17c-.038-.052-.076-.105-.114-.158-.056-.079-.112-.158-.167-.238l-.066-.1q-.1-.148-.2-.3l-.029-.045q-.111-.172-.219-.346l-.006-.01q-.232-.378-.445-.766l0,0q-.1-.189-.2-.381l-.024-.048q-.086-.168-.169-.337c-.022-.045-.043-.091-.065-.136q-.059-.123-.117-.248-.064-.141-.126-.283l-.045-.1a18.089,18.089,0,0,1,2.79-18.8A18.578,18.578,0,0,1,91.1,57.219a17.59,17.59,0,0,1,3.8-1.531l0-.012a3.06,3.06,0,0,0,.518-.222c.308-.079.619-.146.93-.207a17.445,17.445,0,0,1,5.125-.236l0-.012a2.96,2.96,0,0,0,2.085-5.221A5.4,5.4,0,0,0,102,49.093c-.393-.039-.308-.022-.7-.043a24.185,24.185,0,0,0-7.969.918l-.065.006c-.381.1-.3.09-.67.212-.566.185-1.124.392-1.675.618l-.029.012q-.294.121-.585.25l-.108.048q-.257.115-.511.237l-.156.075q-.237.115-.471.236l-.173.089q-.234.123-.465.251l-.156.086q-.251.141-.5.288l-.1.061q-.289.173-.572.355l-.009.006A23.868,23.868,0,0,0,76.958,79.44c.02.072.04.145.061.216l.008.028a24.02,24.02,0,0,0,1.478,3.86,23.519,23.519,0,0,0,4.91,6.751,24.315,24.315,0,0,0,3.819,2.987l.024.015q.23.145.463.284l.006,0a23.849,23.849,0,0,0,10.33,3.31l.061.005q.248.02.5.034l.16.009q.2.01.4.017l.234.007.341.006.28,0,.309,0,.3-.005.313-.011.28-.012c.119-.006.237-.013.356-.021l.226-.015c.148-.011.3-.024.443-.038l.129-.012a24.036,24.036,0,0,0,7.737-2.108q.256-.119.511-.244a23.993,23.993,0,0,0,13.33-20.15c0-.042,0-.084.006-.125.009-.18.017-.361.022-.541,0-.089,0-.179.006-.268,0-.135,0-.271,0-.406s0-.241,0-.362" transform="translate(-76.046 -49.017)"/><path class="b" d="M7802.915-297.652a1.922,1.922,0,0,1-2.082-1.564c-.132-.457-.248-.918-.372-1.376-.212-.8.08-1.172.917-1.176l11.464-.052h.589c.352-1.4.7-2.761,1.039-4.127.073-.292.146-.584.213-.877.159-.717-.141-1.1-.875-1.1q-4.471-.006-8.941,0c-.3,0-.6,0-.9,0q-.788,0-1.574,0c-.563,0-.913-.288-.922-.738s.341-.765.895-.765c3.869,0,7.737-.01,11.605,0a2.218,2.218,0,0,1,2.216,2.727c-.437,1.931-.946,3.845-1.428,5.766-.122.484-.468.625-.933.625q-4.447,0-8.9.023c-.916,0-1.833,0-2.825,0,.067.26.131.45.163.644.062.39.285.507.664.506,2.426-.011,4.852-.006,7.277-.006.951,0,1.9,0,2.854,0,.6,0,.95.29.942.763s-.346.732-.96.732Q7807.98-297.652,7802.915-297.652Zm-3.136-5.608c-.377-1.912-.275-1.524-.646-3.436-.151-.777-.309-1.553-.448-2.332a.558.558,0,0,0-.6-.53c-.743-.033-1.486-.1-2.229-.16a.778.778,0,0,1-.807-.809.779.779,0,0,1,.913-.689c.411.021.821.058,1.232.089.4.03.791.052,1.186.089a1.841,1.841,0,0,1,1.727,1.514c.551,2.764.611,3.232,1.14,6a.747.747,0,0,1-.587.932.749.749,0,0,1-.144.014A.771.771,0,0,1,7799.779-303.26Z" transform="translate(-7781.848 328.908)"/><path class="c" d="M126.944,17.28a6.5,6.5,0,0,1-3.165-.746,5.182,5.182,0,0,1-2.106-2.142,6.816,6.816,0,0,1-.746-3.249,6.744,6.744,0,0,1,.746-3.237,5.208,5.208,0,0,1,2.106-2.13,7.09,7.09,0,0,1,6.33,0,5.126,5.126,0,0,1,2.094,2.13,6.838,6.838,0,0,1,.734,3.237,6.912,6.912,0,0,1-.734,3.249,5.1,5.1,0,0,1-2.094,2.142A6.507,6.507,0,0,1,126.944,17.28Zm0-9.94a2.7,2.7,0,0,0-2.227.975,4.459,4.459,0,0,0-.781,2.828,4.491,4.491,0,0,0,.77,2.839,3.054,3.054,0,0,0,4.452,0,4.486,4.486,0,0,0,.771-2.839,4.5,4.5,0,0,0-.771-2.828A2.666,2.666,0,0,0,126.944,7.34Zm-55.68,9.94a4.729,4.729,0,0,1-2.142-.482,3.823,3.823,0,0,1-1.516-1.323,3.36,3.36,0,0,1-.554-1.878,2.983,2.983,0,0,1,.662-2.045,3.989,3.989,0,0,1,2.154-1.083,19.667,19.667,0,0,1,4.116-.337h.6V9.579a2.479,2.479,0,0,0-.506-1.721,2.163,2.163,0,0,0-1.637-.542,5.214,5.214,0,0,0-1.42.2c-.486.138-1.061.336-1.709.59a2.423,2.423,0,0,1-.915.312.908.908,0,0,1-.71-.312,1.2,1.2,0,0,1-.277-.819,1.238,1.238,0,0,1,.2-.71,1.955,1.955,0,0,1,.686-.566A7.853,7.853,0,0,1,70.313,5.3a10.416,10.416,0,0,1,2.3-.265,4.921,4.921,0,0,1,3.646,1.216A5.107,5.107,0,0,1,77.449,9.94v5.873a1.365,1.365,0,0,1-.385,1.023A1.465,1.465,0,0,1,76,17.209a1.413,1.413,0,0,1-1.023-.386,1.349,1.349,0,0,1-.4-1.011v-.53A3.157,3.157,0,0,1,73.3,16.751,3.886,3.886,0,0,1,71.264,17.28Zm2.888-5.559a16.74,16.74,0,0,0-2.5.144,2.448,2.448,0,0,0-1.275.506,1.292,1.292,0,0,0-.385.986,1.641,1.641,0,0,0,.542,1.264,1.917,1.917,0,0,0,1.335.493,2.583,2.583,0,0,0,1.962-.806,2.93,2.93,0,0,0,.758-2.081v-.506ZM46.907,17.28a6.262,6.262,0,0,1-3.092-.746,5.112,5.112,0,0,1-2.058-2.119,6.8,6.8,0,0,1-.722-3.2,6.752,6.752,0,0,1,.758-3.237A5.386,5.386,0,0,1,43.923,5.8a6.365,6.365,0,0,1,3.153-.77,7.042,7.042,0,0,1,1.889.265,6.257,6.257,0,0,1,1.673.721,1.5,1.5,0,0,1,.771,1.275,1.36,1.36,0,0,1-.253.855.8.8,0,0,1-.661.325,1.437,1.437,0,0,1-.554-.121,4.779,4.779,0,0,1-.577-.288,6.476,6.476,0,0,0-1.011-.493,3.142,3.142,0,0,0-1.107-.181,2.826,2.826,0,0,0-2.3.975,4.315,4.315,0,0,0-.806,2.8,4.274,4.274,0,0,0,.806,2.78,2.826,2.826,0,0,0,2.3.975,2.965,2.965,0,0,0,1.071-.181,8.9,8.9,0,0,0,1.047-.493,4.777,4.777,0,0,1,.626-.325,1.414,1.414,0,0,1,.53-.108.8.8,0,0,1,.65.337,1.327,1.327,0,0,1,.264.842,1.367,1.367,0,0,1-.18.71,1.641,1.641,0,0,1-.59.542A6.322,6.322,0,0,1,48.929,17,7.483,7.483,0,0,1,46.907,17.28Zm-21.468,0a6.161,6.161,0,0,1-4.5-1.636,6.029,6.029,0,0,1-1.66-4.477A6.9,6.9,0,0,1,20,7.966,5.275,5.275,0,0,1,22.034,5.8a5.785,5.785,0,0,1,2.972-.77,5.357,5.357,0,0,1,2.768.7A4.75,4.75,0,0,1,29.6,7.7a6.576,6.576,0,0,1,.65,3.009c0,.687-.308,1.035-.915,1.035h-7.1a3.8,3.8,0,0,0,.939,2.443,3.171,3.171,0,0,0,2.31.782,4.4,4.4,0,0,0,1.36-.192,13.592,13.592,0,0,0,1.336-.53,2.663,2.663,0,0,1,1.059-.385.813.813,0,0,1,.661.313,1.3,1.3,0,0,1,.253.842,1.466,1.466,0,0,1-.891,1.251A8.057,8.057,0,0,1,27.412,17,7.67,7.67,0,0,1,25.439,17.28ZM25.078,7.148a2.593,2.593,0,0,0-1.961.77,3.66,3.66,0,0,0-.879,2.214h5.439a3.444,3.444,0,0,0-.722-2.226A2.389,2.389,0,0,0,25.078,7.148ZM144.441,17.232a1.325,1.325,0,0,1-1.035-.5l-3.394-3.755-3.393,3.755a1.4,1.4,0,0,1-1.035.482,1.4,1.4,0,0,1-1.348-1.348,1.366,1.366,0,0,1,.433-.987l1.581-1.722L140,9.088l.008.009,1.21-1.328,1.553-1.682.181-.221.257-.283a1.4,1.4,0,0,1,1.035-.482A1.357,1.357,0,0,1,145.6,6.45a1.368,1.368,0,0,1-.433.987l-3.322,3.61,3.538,3.826a1.369,1.369,0,0,1,.433.987,1.335,1.335,0,0,1-.41.951A1.3,1.3,0,0,1,144.441,17.232Zm-54.4,0a1.556,1.556,0,0,1-1.107-.385,1.39,1.39,0,0,1-.409-1.059V10.036a3.138,3.138,0,0,0-.517-2,2,2,0,0,0-1.625-.626,2.757,2.757,0,0,0-2.082.818,3.052,3.052,0,0,0-.782,2.19v5.367a1.388,1.388,0,0,1-.409,1.059A1.554,1.554,0,0,1,82,17.232a1.514,1.514,0,0,1-1.095-.385,1.411,1.411,0,0,1-.4-1.059V6.474a1.33,1.33,0,0,1,.409-1.011,1.556,1.556,0,0,1,1.107-.385,1.443,1.443,0,0,1,1.023.372,1.282,1.282,0,0,1,.4.975v.65a4.089,4.089,0,0,1,1.612-1.516,4.887,4.887,0,0,1,2.287-.529,3.95,3.95,0,0,1,3.152,1.2,5.481,5.481,0,0,1,1.035,3.634v5.921a1.414,1.414,0,0,1-.4,1.059A1.512,1.512,0,0,1,90.036,17.232Zm-27.076,0a1.556,1.556,0,0,1-1.107-.385,1.39,1.39,0,0,1-.409-1.059V9.867A2.8,2.8,0,0,0,60.927,8a2.06,2.06,0,0,0-1.625-.59,2.757,2.757,0,0,0-2.082.818,3.052,3.052,0,0,0-.782,2.19v5.367a1.388,1.388,0,0,1-.409,1.059,1.554,1.554,0,0,1-1.107.385,1.514,1.514,0,0,1-1.095-.385,1.411,1.411,0,0,1-.4-1.059V1.4A1.311,1.311,0,0,1,53.851.385,1.564,1.564,0,0,1,54.946,0a1.583,1.583,0,0,1,1.083.361,1.253,1.253,0,0,1,.409.987V6.956a3.956,3.956,0,0,1,1.6-1.432,5.094,5.094,0,0,1,2.274-.493,3.878,3.878,0,0,1,3.1,1.209,5.486,5.486,0,0,1,1.035,3.628v5.921a1.414,1.414,0,0,1-.4,1.059A1.512,1.512,0,0,1,62.96,17.232Zm-28.76,0a1.565,1.565,0,0,1-1.071-.372,1.362,1.362,0,0,1-.421-1.071V6.474a1.293,1.293,0,0,1,.421-1.035,1.563,1.563,0,0,1,1.047-.361,1.454,1.454,0,0,1,1.011.348,1.284,1.284,0,0,1,.386,1v.963a3.586,3.586,0,0,1,1.36-1.637,4.193,4.193,0,0,1,2.009-.65l.337-.023c.059,0,.114-.007.163-.007a1.217,1.217,0,0,1,.823.271,1.184,1.184,0,0,1,.361.939,1.321,1.321,0,0,1-.312.963,1.931,1.931,0,0,1-1.131.409l-.722.072a2.936,2.936,0,0,0-2.082.963,3.163,3.163,0,0,0-.661,2.045v5.054a1.342,1.342,0,0,1-.433,1.071A1.608,1.608,0,0,1,34.2,17.232Zm-19.086,0a1.293,1.293,0,0,1-.986-.385,1.493,1.493,0,0,1-.362-1.059V5.873l-4.091,7.75a2.4,2.4,0,0,1-.626.782,1.292,1.292,0,0,1-.794.252,1.334,1.334,0,0,1-.795-.241,1.613,1.613,0,0,1-.317-.308l3.017-6.493L13.6,1.035A1.6,1.6,0,0,1,15.018,0,1.449,1.449,0,0,1,16.1.422,1.545,1.545,0,0,1,16.51,1.54V15.788a1.434,1.434,0,0,1-.386,1.059A1.372,1.372,0,0,1,15.114,17.232Zm-13.766,0a1.294,1.294,0,0,1-.987-.385A1.493,1.493,0,0,1,0,15.788V1.54A1.571,1.571,0,0,1,.4.422,1.405,1.405,0,0,1,1.468,0,1.625,1.625,0,0,1,2.936,1.035L7.281,9.313,5.9,11.891l-3.182-5.9v9.8a1.473,1.473,0,0,1-.372,1.047A1.311,1.311,0,0,1,1.348,17.232Zm98.978-.017c-.069,0-.146,0-.229-.007l-.65-.048a4.426,4.426,0,0,1-3.032-1.228,4.4,4.4,0,0,1-1.011-3.1V7.581H94.2a1.535,1.535,0,0,1-1-.289,1.035,1.035,0,0,1-.349-.842,1.035,1.035,0,0,1,.349-.842,1.535,1.535,0,0,1,1-.289h1.2V3.1a1.363,1.363,0,0,1,.41-1.036,1.552,1.552,0,0,1,1.106-.385A1.519,1.519,0,0,1,98,2.069a1.363,1.363,0,0,1,.41,1.036V5.319h2.045a1.535,1.535,0,0,1,1,.289,1.035,1.035,0,0,1,.349.842,1.035,1.035,0,0,1-.349.842,1.535,1.535,0,0,1-1,.289H98.412v5.463a1.648,1.648,0,0,0,1.636,1.9l.65.048c.8.048,1.2.413,1.2,1.083a.979.979,0,0,1-.469.878A2.04,2.04,0,0,1,100.326,17.215Zm12.78-.127H106.9A1.514,1.514,0,0,1,105.8,16.7a1.444,1.444,0,0,1-.4-1.083V1.589a1.444,1.444,0,0,1,.4-1.083A1.514,1.514,0,0,1,106.9.12h5.969a6.648,6.648,0,0,1,4.151,1.168,3.91,3.91,0,0,1,1.5,3.261,3.9,3.9,0,0,1-.711,2.334,4.073,4.073,0,0,1-1.961,1.445,4.12,4.12,0,0,1,2.274,1.492,4.325,4.325,0,0,1,.806,2.647,4.1,4.1,0,0,1-1.553,3.394A6.746,6.746,0,0,1,113.105,17.088Zm-4.67-7.413v5.006h4.332a4.019,4.019,0,0,0,2.455-.6,2.244,2.244,0,0,0,.77-1.877,2.3,2.3,0,0,0-.782-1.9,3.914,3.914,0,0,0-2.443-.626Zm0-7.148V7.268h3.923c2.124,0,3.2-.8,3.2-2.383a2.064,2.064,0,0,0-.794-1.78,4.11,4.11,0,0,0-2.407-.578Zm28.758,7.444h0l-2.331-2.533a1.366,1.366,0,0,1-.433-.987,1.285,1.285,0,0,1,.409-.951,1.314,1.314,0,0,1,.939-.4,1.4,1.4,0,0,1,1.035.482L139.013,8,137.194,9.97Z" transform="translate(60.193 15)"/></svg>