<svg width="217" height="37" viewBox="0 0 217 37" fill="none" xmlns="http://www.w3.org/2000/svg">
<path d="M61.4691 25.0468C61.9544 25.0468 62.3557 25.2148 62.6731 25.5508C63.0091 25.8682 63.1771 26.2415 63.1771 26.6708C63.1771 27.1375 63.0091 27.5202 62.6731 27.8188C62.3557 28.1175 61.9544 28.2668 61.4691 28.2668H52.0891C51.6037 28.2668 51.1931 28.1082 50.8571 27.7908C50.5397 27.4548 50.3811 27.0442 50.3811 26.5588V10.3748C50.3811 9.88951 50.5397 9.48818 50.8571 9.17084C51.1931 8.83484 51.6037 8.66684 52.0891 8.66684H61.4691C61.9544 8.66684 62.3557 8.82551 62.6731 9.14284C63.0091 9.44151 63.1771 9.83351 63.1771 10.3188C63.1771 10.7855 63.0184 11.1682 62.7011 11.4668C62.3837 11.7468 61.9731 11.8868 61.4691 11.8868H53.8811V16.6468H60.2091C60.6944 16.6468 61.0957 16.8055 61.4131 17.1228C61.7491 17.4215 61.9171 17.8135 61.9171 18.2988C61.9171 18.7655 61.7584 19.1482 61.4411 19.4468C61.1237 19.7268 60.7131 19.8668 60.2091 19.8668H53.8811V25.0468H61.4691ZM78.2485 13.0068C78.7338 13.0068 79.1352 13.1655 79.4525 13.4828C79.7698 13.8002 79.9285 14.2108 79.9285 14.7148V26.5588C79.9285 27.0442 79.7698 27.4548 79.4525 27.7908C79.1352 28.1082 78.7338 28.2668 78.2485 28.2668C77.7632 28.2668 77.3618 28.1082 77.0445 27.7908C76.7458 27.4735 76.5872 27.0722 76.5685 26.5868C76.1018 27.1282 75.4672 27.5948 74.6645 27.9868C73.8805 28.3602 73.0498 28.5468 72.1725 28.5468C70.8845 28.5468 69.7178 28.2202 68.6725 27.5668C67.6272 26.8948 66.7965 25.9708 66.1805 24.7948C65.5832 23.6188 65.2845 22.2842 65.2845 20.7908C65.2845 19.2975 65.5832 17.9628 66.1805 16.7868C66.7778 15.5922 67.5898 14.6682 68.6165 14.0148C69.6618 13.3428 70.8098 13.0068 72.0605 13.0068C72.9565 13.0068 73.7965 13.1748 74.5805 13.5108C75.3645 13.8282 76.0272 14.2388 76.5685 14.7428V14.7148C76.5685 14.2295 76.7272 13.8282 77.0445 13.5108C77.3618 13.1748 77.7632 13.0068 78.2485 13.0068ZM72.5925 25.4668C73.8058 25.4668 74.7952 25.0282 75.5605 24.1508C76.3258 23.2548 76.7085 22.1348 76.7085 20.7908C76.7085 19.4468 76.3258 18.3268 75.5605 17.4308C74.7952 16.5348 73.8058 16.0868 72.5925 16.0868C71.3978 16.0868 70.4178 16.5348 69.6525 17.4308C68.8872 18.3268 68.5045 19.4468 68.5045 20.7908C68.5045 22.1348 68.8778 23.2548 69.6245 24.1508C70.3898 25.0282 71.3792 25.4668 72.5925 25.4668ZM82.7018 25.9428C82.5338 25.7188 82.4498 25.4388 82.4498 25.1028C82.4498 24.6175 82.6925 24.2068 83.1778 23.8708C83.4392 23.7028 83.7098 23.6188 83.9898 23.6188C84.3818 23.6188 84.7552 23.7962 85.1098 24.1508C85.6698 24.7295 86.2485 25.1588 86.8458 25.4388C87.4618 25.7188 88.1992 25.8588 89.0578 25.8588C90.5138 25.8028 91.2418 25.2522 91.2418 24.2068C91.2418 23.6655 90.9898 23.2548 90.4858 22.9748C90.0005 22.6948 89.2352 22.4148 88.1898 22.1348C87.1072 21.8362 86.2205 21.5375 85.5298 21.2388C84.8578 20.9402 84.2698 20.4922 83.7658 19.8948C83.2805 19.2788 83.0378 18.4575 83.0378 17.4308C83.0378 16.5348 83.2898 15.7602 83.7938 15.1068C84.3165 14.4348 84.9885 13.9215 85.8098 13.5668C86.6498 13.1935 87.5365 13.0068 88.4698 13.0068C89.4218 13.0068 90.3738 13.1842 91.3258 13.5388C92.2778 13.8935 93.0245 14.4162 93.5658 15.1068C93.8085 15.4055 93.9298 15.7415 93.9298 16.1148C93.9298 16.5442 93.7525 16.8988 93.3978 17.1788C93.1365 17.3842 92.8378 17.4868 92.5018 17.4868C92.0912 17.4868 91.7552 17.3562 91.4938 17.0948C91.1578 16.6842 90.7192 16.3575 90.1778 16.1148C89.6552 15.8722 89.0578 15.7508 88.3858 15.7508C86.9672 15.7508 86.2578 16.2642 86.2578 17.2908C86.2578 17.7015 86.3885 18.0375 86.6498 18.2988C86.9112 18.5415 87.2378 18.7375 87.6298 18.8868C88.0405 19.0175 88.6098 19.1855 89.3378 19.3908C90.3458 19.6708 91.1858 19.9602 91.8578 20.2588C92.5298 20.5575 93.0992 21.0148 93.5658 21.6308C94.0325 22.2468 94.2658 23.0588 94.2658 24.0668C94.2658 24.9815 93.9952 25.7842 93.4538 26.4748C92.9125 27.1468 92.2125 27.6602 91.3538 28.0148C90.5138 28.3695 89.6458 28.5468 88.7498 28.5468C87.5178 28.5468 86.3698 28.3415 85.3058 27.9308C84.2418 27.5202 83.3738 26.8575 82.7018 25.9428ZM108.194 13.2868C108.679 13.2868 109.08 13.4548 109.398 13.7908C109.715 14.1082 109.874 14.5095 109.874 14.9948V26.8948C109.874 29.3215 109.22 31.0855 107.914 32.1868C106.607 33.3068 104.862 33.8668 102.678 33.8668C102.043 33.8668 101.39 33.8108 100.718 33.6988C100.064 33.6055 99.5323 33.4748 99.1216 33.3068C98.207 32.9148 97.7496 32.3735 97.7496 31.6828C97.7496 31.5522 97.7776 31.4028 97.8336 31.2348C97.9456 30.8242 98.1323 30.5068 98.3936 30.2828C98.6736 30.0775 98.9723 29.9748 99.2896 29.9748C99.4763 29.9748 99.6536 30.0028 99.8216 30.0588C99.9523 30.1148 100.176 30.2082 100.494 30.3388C100.83 30.4695 101.175 30.5722 101.53 30.6468C101.903 30.7402 102.286 30.7868 102.678 30.7868C104.003 30.7868 104.974 30.4975 105.59 29.9188C106.224 29.3588 106.542 28.3882 106.542 27.0068V26.7268C105.571 27.9402 104.059 28.5468 102.006 28.5468C101.035 28.5468 100.176 28.3228 99.4296 27.8748C98.683 27.4082 98.1043 26.7735 97.6936 25.9708C97.283 25.1495 97.0776 24.2162 97.0776 23.1708V14.9948C97.0776 14.5095 97.2363 14.1082 97.5536 13.7908C97.871 13.4548 98.2723 13.2868 98.7576 13.2868C99.243 13.2868 99.6443 13.4548 99.9616 13.7908C100.279 14.1082 100.438 14.5095 100.438 14.9948V22.1628C100.438 23.3388 100.69 24.1882 101.194 24.7108C101.716 25.2148 102.472 25.4668 103.462 25.4668C104.432 25.4668 105.179 25.1868 105.702 24.6268C106.243 24.0482 106.514 23.2268 106.514 22.1628V14.9948C106.514 14.5095 106.672 14.1082 106.99 13.7908C107.307 13.4548 107.708 13.2868 108.194 13.2868ZM117.291 11.8868V16.8148H123.339C123.825 16.8148 124.226 16.9735 124.543 17.2908C124.879 17.5895 125.047 17.9815 125.047 18.4668C125.047 18.8775 124.879 19.2415 124.543 19.5588C124.226 19.8762 123.825 20.0348 123.339 20.0348H117.291V26.5588C117.291 27.0442 117.114 27.4548 116.759 27.7908C116.423 28.1082 116.022 28.2668 115.555 28.2668C115.033 28.2668 114.603 28.1082 114.267 27.7908C113.95 27.4735 113.791 27.0628 113.791 26.5588V10.3748C113.791 9.88951 113.95 9.48818 114.267 9.17084C114.603 8.83484 115.014 8.66684 115.499 8.66684H124.599C125.085 8.66684 125.486 8.82551 125.803 9.14284C126.139 9.44151 126.307 9.83351 126.307 10.3188C126.307 10.7295 126.139 11.0935 125.803 11.4108C125.486 11.7282 125.085 11.8868 124.599 11.8868H117.291ZM132.398 26.5588C132.398 27.0442 132.239 27.4548 131.922 27.7908C131.605 28.1082 131.203 28.2668 130.718 28.2668C130.233 28.2668 129.831 28.1082 129.514 27.7908C129.197 27.4548 129.038 27.0442 129.038 26.5588V14.9948C129.038 14.5095 129.197 14.1082 129.514 13.7908C129.831 13.4548 130.233 13.2868 130.718 13.2868C131.203 13.2868 131.605 13.4548 131.922 13.7908C132.239 14.1082 132.398 14.5095 132.398 14.9948V26.5588ZM130.69 11.4668C130.055 11.4668 129.607 11.3642 129.346 11.1588C129.085 10.9535 128.954 10.5895 128.954 10.0668V9.53484C128.954 9.01218 129.094 8.64818 129.374 8.44285C129.654 8.23751 130.102 8.13484 130.718 8.13484C131.371 8.13484 131.829 8.23751 132.09 8.44285C132.351 8.64818 132.482 9.01218 132.482 9.53484V10.0668C132.482 10.6082 132.342 10.9815 132.062 11.1868C131.801 11.3735 131.343 11.4668 130.69 11.4668ZM143.859 13.0068C145.763 13.0068 147.079 13.5762 147.807 14.7148C148.535 15.8348 148.899 17.3935 148.899 19.3908V26.5588C148.899 27.0442 148.74 27.4548 148.423 27.7908C148.106 28.1082 147.704 28.2668 147.219 28.2668C146.734 28.2668 146.332 28.1082 146.015 27.7908C145.698 27.4548 145.539 27.0442 145.539 26.5588V19.3908C145.539 18.3642 145.324 17.5615 144.895 16.9828C144.466 16.3855 143.728 16.0868 142.683 16.0868C141.6 16.0868 140.751 16.4042 140.135 17.0388C139.519 17.6548 139.211 18.4388 139.211 19.3908V26.5588C139.211 27.0442 139.052 27.4548 138.735 27.7908C138.418 28.1082 138.016 28.2668 137.531 28.2668C137.046 28.2668 136.644 28.1082 136.327 27.7908C136.01 27.4548 135.851 27.0442 135.851 26.5588V14.9948C135.851 14.5095 136.01 14.1082 136.327 13.7908C136.644 13.4548 137.046 13.2868 137.531 13.2868C138.016 13.2868 138.418 13.4548 138.735 13.7908C139.052 14.1082 139.211 14.5095 139.211 14.9948V15.4708C139.715 14.7988 140.368 14.2202 141.171 13.7348C141.992 13.2495 142.888 13.0068 143.859 13.0068ZM164.655 13.0068C165.14 13.0068 165.541 13.1655 165.859 13.4828C166.176 13.8002 166.335 14.2108 166.335 14.7148V26.5588C166.335 27.0442 166.176 27.4548 165.859 27.7908C165.541 28.1082 165.14 28.2668 164.655 28.2668C164.169 28.2668 163.768 28.1082 163.451 27.7908C163.152 27.4735 162.993 27.0722 162.975 26.5868C162.508 27.1282 161.873 27.5948 161.071 27.9868C160.287 28.3602 159.456 28.5468 158.579 28.5468C157.291 28.5468 156.124 28.2202 155.079 27.5668C154.033 26.8948 153.203 25.9708 152.587 24.7948C151.989 23.6188 151.691 22.2842 151.691 20.7908C151.691 19.2975 151.989 17.9628 152.587 16.7868C153.184 15.5922 153.996 14.6682 155.023 14.0148C156.068 13.3428 157.216 13.0068 158.467 13.0068C159.363 13.0068 160.203 13.1748 160.987 13.5108C161.771 13.8282 162.433 14.2388 162.975 14.7428V14.7148C162.975 14.2295 163.133 13.8282 163.451 13.5108C163.768 13.1748 164.169 13.0068 164.655 13.0068ZM158.999 25.4668C160.212 25.4668 161.201 25.0282 161.967 24.1508C162.732 23.2548 163.115 22.1348 163.115 20.7908C163.115 19.4468 162.732 18.3268 161.967 17.4308C161.201 16.5348 160.212 16.0868 158.999 16.0868C157.804 16.0868 156.824 16.5348 156.059 17.4308C155.293 18.3268 154.911 19.4468 154.911 20.7908C154.911 22.1348 155.284 23.2548 156.031 24.1508C156.796 25.0282 157.785 25.4668 158.999 25.4668ZM177.984 13.0068C179.888 13.0068 181.204 13.5762 181.932 14.7148C182.66 15.8348 183.024 17.3935 183.024 19.3908V26.5588C183.024 27.0442 182.865 27.4548 182.548 27.7908C182.231 28.1082 181.829 28.2668 181.344 28.2668C180.859 28.2668 180.457 28.1082 180.14 27.7908C179.823 27.4548 179.664 27.0442 179.664 26.5588V19.3908C179.664 18.3642 179.449 17.5615 179.02 16.9828C178.591 16.3855 177.853 16.0868 176.808 16.0868C175.725 16.0868 174.876 16.4042 174.26 17.0388C173.644 17.6548 173.336 18.4388 173.336 19.3908V26.5588C173.336 27.0442 173.177 27.4548 172.86 27.7908C172.543 28.1082 172.141 28.2668 171.656 28.2668C171.171 28.2668 170.769 28.1082 170.452 27.7908C170.135 27.4548 169.976 27.0442 169.976 26.5588V14.9948C169.976 14.5095 170.135 14.1082 170.452 13.7908C170.769 13.4548 171.171 13.2868 171.656 13.2868C172.141 13.2868 172.543 13.4548 172.86 13.7908C173.177 14.1082 173.336 14.5095 173.336 14.9948V15.4708C173.84 14.7988 174.493 14.2202 175.296 13.7348C176.117 13.2495 177.013 13.0068 177.984 13.0068ZM193.18 13.0068C194.766 13.0068 196.045 13.2588 197.016 13.7628C197.986 14.2482 198.472 14.9015 198.472 15.7228C198.472 16.1335 198.35 16.4975 198.108 16.8148C197.865 17.1135 197.548 17.2628 197.156 17.2628C196.857 17.2628 196.614 17.2255 196.428 17.1508C196.241 17.0575 196.054 16.9455 195.868 16.8148C195.7 16.6655 195.532 16.5442 195.364 16.4508C195.177 16.3575 194.897 16.2735 194.524 16.1988C194.169 16.1242 193.88 16.0868 193.656 16.0868C192.256 16.0868 191.154 16.5255 190.352 17.4028C189.568 18.2615 189.176 19.3908 189.176 20.7908C189.176 22.1348 189.577 23.2548 190.38 24.1508C191.182 25.0282 192.209 25.4668 193.46 25.4668C194.374 25.4668 195.056 25.3548 195.504 25.1308C195.616 25.0748 195.765 24.9815 195.952 24.8508C196.157 24.7015 196.344 24.5895 196.512 24.5148C196.68 24.4402 196.885 24.4028 197.128 24.4028C197.594 24.4028 197.958 24.5522 198.22 24.8508C198.5 25.1495 198.64 25.5322 198.64 25.9988C198.64 26.4468 198.378 26.8668 197.856 27.2588C197.333 27.6508 196.642 27.9682 195.784 28.2108C194.925 28.4348 194.01 28.5468 193.04 28.5468C191.602 28.5468 190.333 28.2108 189.232 27.5388C188.149 26.8668 187.309 25.9428 186.712 24.7668C186.114 23.5722 185.816 22.2468 185.816 20.7908C185.816 19.2788 186.124 17.9348 186.74 16.7588C187.374 15.5828 188.252 14.6682 189.372 14.0148C190.492 13.3428 191.761 13.0068 193.18 13.0068ZM214.506 20.4268C214.487 20.8748 214.31 21.2388 213.974 21.5188C213.638 21.7988 213.246 21.9388 212.798 21.9388H203.558C203.782 23.0402 204.295 23.9082 205.098 24.5428C205.901 25.1588 206.806 25.4668 207.814 25.4668C208.579 25.4668 209.177 25.4015 209.606 25.2708C210.035 25.1215 210.371 24.9722 210.614 24.8228C210.875 24.6548 211.053 24.5428 211.146 24.4868C211.482 24.3188 211.799 24.2348 212.098 24.2348C212.49 24.2348 212.826 24.3748 213.106 24.6548C213.386 24.9348 213.526 25.2615 213.526 25.6348C213.526 26.1388 213.265 26.5962 212.742 27.0068C212.219 27.4362 211.519 27.8002 210.642 28.0988C209.765 28.3975 208.878 28.5468 207.982 28.5468C206.414 28.5468 205.042 28.2202 203.866 27.5668C202.709 26.9135 201.813 26.0175 201.178 24.8788C200.543 23.7215 200.226 22.4242 200.226 20.9868C200.226 19.3815 200.562 17.9722 201.234 16.7588C201.906 15.5455 202.793 14.6215 203.894 13.9868C204.995 13.3335 206.171 13.0068 207.422 13.0068C208.654 13.0068 209.811 13.3428 210.894 14.0148C211.995 14.6868 212.873 15.5922 213.526 16.7308C214.179 17.8695 214.506 19.1015 214.506 20.4268ZM207.422 16.0868C205.257 16.0868 203.978 17.1042 203.586 19.1388H210.922V18.9428C210.847 18.1588 210.465 17.4868 209.774 16.9268C209.083 16.3668 208.299 16.0868 207.422 16.0868Z" fill="#1A2AD1"/>
<path d="M25.9211 6.71353C26.3801 6.71353 26.8288 6.57742 27.2104 6.3224C27.5921 6.06739 27.8895 5.70493 28.0652 5.28086C28.2408 4.85678 28.2868 4.39015 28.1973 3.93996C28.1077 3.48977 27.8867 3.07624 27.5621 2.75167C27.2375 2.4271 26.824 2.20606 26.3738 2.11651C25.9236 2.02696 25.457 2.07292 25.0329 2.24858C24.6089 2.42423 24.2464 2.7217 23.9914 3.10335C23.7364 3.48501 23.6003 3.93371 23.6003 4.39272C23.6003 5.00824 23.8448 5.59854 24.28 6.03378C24.7153 6.46902 25.3056 6.71353 25.9211 6.71353ZM36.92 18.2026C36.92 18.1196 36.92 18.0366 36.915 17.9536C36.915 17.8476 36.911 17.7419 36.903 17.6366C36.903 17.5636 36.896 17.4896 36.892 17.4166C36.886 17.3073 36.8787 17.198 36.87 17.0887C36.8647 17.0153 36.8587 16.9417 36.852 16.8677C36.8427 16.7637 36.8327 16.6604 36.822 16.5577C36.8133 16.4744 36.804 16.391 36.794 16.3077C36.784 16.2244 36.7727 16.1351 36.76 16.0397C36.7467 15.9384 36.7324 15.8384 36.717 15.7398C36.707 15.6731 36.6964 15.6064 36.685 15.5398C36.665 15.4138 36.6434 15.2881 36.62 15.1628L36.598 15.0418V15.0268C36.5694 14.8755 36.5387 14.7242 36.506 14.5729V14.5509C36.4491 14.2889 36.389 14.0279 36.3211 13.7689C36.3037 13.7023 36.2864 13.6373 36.2691 13.574C36.2691 13.574 36.2621 13.553 36.2511 13.523C35.6624 11.4172 34.7072 9.43167 33.4293 7.65745L33.3103 7.49447C32.9608 7.06621 32.5307 6.71055 32.0445 6.44755C31.619 6.29904 31.159 6.27996 30.7227 6.39274C30.2864 6.50551 29.8933 6.74507 29.593 7.08116C29.2928 7.41725 29.0989 7.83478 29.0358 8.28102C28.9728 8.72725 29.0434 9.18216 29.2387 9.58829C29.3151 9.74749 29.4093 9.89745 29.5197 10.0352L29.5127 10.0412C31.0285 12.102 31.9742 14.5259 32.2545 17.0687C32.2615 17.1337 32.2705 17.1987 32.2765 17.2686C32.5039 20.0252 31.927 22.7887 30.6156 25.224C29.9811 26.3553 29.19 27.3915 28.2658 28.3017C26.5652 29.9775 24.4695 31.1973 22.1724 31.8484C21.8938 31.9251 21.6128 31.9917 21.3295 32.0484C18.3107 32.6872 15.1654 32.3122 12.3814 30.9815L12.3684 30.9755C12.2797 30.9328 12.1911 30.8888 12.1024 30.8435L12.0404 30.8115L11.8094 30.6895L11.7315 30.6465C11.6565 30.6055 11.5825 30.5635 11.5085 30.5215L11.4455 30.4815C11.3635 30.4335 11.2825 30.3815 11.2015 30.3366L11.1905 30.3295C10.8099 30.0969 10.4382 29.8436 10.0756 29.5696C9.1972 28.906 8.39981 28.1415 7.69984 27.2918L7.69285 27.2838C7.62786 27.2048 7.56486 27.1248 7.50187 27.0448L7.44587 26.9728C7.40088 26.9138 7.35588 26.8548 7.31088 26.7958L7.21089 26.6649L7.1229 26.5429C7.07991 26.4819 7.03591 26.4209 6.99391 26.3599L6.94592 26.2819C6.89393 26.2059 6.84293 26.1296 6.79294 26.0529L6.77093 26.0179C6.71361 25.9299 6.65761 25.8413 6.60295 25.7519V25.7439C6.4843 25.55 6.36998 25.3533 6.25999 25.154C6.20666 25.0567 6.15466 24.9587 6.104 24.86L6.085 24.823C6.04101 24.737 5.99768 24.6504 5.95502 24.563L5.90502 24.463C5.87436 24.3964 5.84436 24.3327 5.81503 24.2721C5.7857 24.2114 5.75237 24.1387 5.71504 24.0541L5.68104 23.9761C4.66037 21.601 4.32078 18.9888 4.70027 16.4317C5.07977 13.8746 6.16338 11.4736 7.82984 9.4973C8.88906 8.23018 10.1597 7.15607 11.5855 6.32256C12.5111 5.81706 13.4927 5.42141 14.5102 5.14366V5.13466C14.6485 5.09012 14.7824 5.03288 14.9101 4.96368C15.1471 4.90268 15.3861 4.85169 15.6271 4.80369C16.9265 4.54884 18.2564 4.48751 19.5737 4.62171V4.61271C20.0542 4.64395 20.5322 4.5222 20.9391 4.26493C21.3461 4.00766 21.6612 3.62809 21.8391 3.18068C22.017 2.73326 22.0486 2.241 21.9294 1.7745C21.8102 1.30801 21.5463 0.891257 21.1755 0.584041C20.8074 0.346848 20.4042 0.169341 19.9807 0.0580884C19.6807 0.028091 19.7437 0.0410889 19.4407 0.0250903C17.3701 -0.0824985 15.2962 0.156435 13.3043 0.732032H13.2543C12.9613 0.813025 13.0273 0.801024 12.7384 0.895016C12.3024 1.037 11.8724 1.19499 11.4485 1.37098L11.4265 1.37998C11.2758 1.44197 11.1258 1.50597 10.9765 1.57196L10.8925 1.60896C10.7592 1.66829 10.6279 1.72895 10.4986 1.79094L10.3786 1.84894C10.2566 1.90827 10.1356 1.9686 10.0156 2.02992L9.88263 2.09892C9.76264 2.16158 9.64333 2.2259 9.52467 2.2919L9.40468 2.35889C9.27603 2.43089 9.14837 2.50488 9.02171 2.58088L8.94573 2.63387C8.79774 2.72253 8.65075 2.81352 8.50477 2.90685H8.49777C5.16398 5.03251 2.60456 8.17664 1.19955 11.8724C-0.205468 15.5682 -0.381169 19.6186 0.698528 23.4221C0.713527 23.4781 0.72953 23.5331 0.745528 23.5891L0.751524 23.6101C1.0447 24.6319 1.42541 25.6265 1.88941 26.5829C2.82945 28.5277 4.10982 30.2886 5.67004 31.7824C6.57121 32.6451 7.55635 33.4155 8.61076 34.0822L8.62875 34.0942C8.74674 34.1689 8.8654 34.2419 8.98472 34.3132C11.4064 35.7655 14.1304 36.6397 16.9449 36.868H16.9919C17.1193 36.878 17.2466 36.8867 17.3739 36.894L17.4969 36.901L17.8079 36.914L17.9878 36.92H18.2498H18.4658H18.7038H18.9328L19.1737 36.912L19.3897 36.903L19.6637 36.887L19.8377 36.875C19.9517 36.867 20.0646 36.857 20.1786 36.846L20.2786 36.837C22.3413 36.6334 24.3551 36.0849 26.236 35.2141C26.3694 35.1535 26.5003 35.0908 26.629 35.0262C29.5593 33.5789 32.0532 31.3802 33.8563 28.6545C35.6595 25.9287 36.7074 22.7734 36.893 19.5105C36.893 19.4785 36.893 19.4465 36.893 19.4105C36.9 19.2715 36.906 19.1325 36.91 18.9935C36.91 18.9245 36.91 18.8555 36.91 18.7875C36.91 18.6875 36.91 18.5795 36.91 18.4745C36.91 18.3695 36.91 18.2886 36.91 18.1956" fill="#3BE5BF"/>
<path d="M16.213 24.0691C15.8445 24.1055 15.476 24.0024 15.1799 23.7803C14.8837 23.5582 14.6813 23.2331 14.613 22.8692C14.513 22.5172 14.4234 22.1623 14.3274 21.8093C14.1644 21.1963 14.389 20.9094 15.0329 20.9034L23.8602 20.8634H24.3133C24.5842 19.7895 24.85 18.7376 25.113 17.6856C25.17 17.4607 25.225 17.2367 25.277 17.0097C25.399 16.4578 25.1692 16.1638 24.6033 16.1628C22.3075 16.1628 20.0122 16.1628 17.7177 16.1628H17.0259C16.6209 16.1628 16.2171 16.1628 15.8131 16.1628C15.3792 16.1628 15.1132 15.9408 15.1032 15.5938C15.0932 15.2468 15.3662 15.0049 15.7921 15.0049C18.7708 15.0049 21.7495 14.9969 24.7283 15.0049C24.9895 14.9982 25.2486 15.0516 25.486 15.1609C25.7234 15.2702 25.9329 15.4325 26.0978 15.6353C26.2626 15.8381 26.3786 16.076 26.4371 16.3308C26.4956 16.5855 26.495 16.8503 26.4351 17.1047C26.0982 18.5916 25.7061 20.0655 25.3351 21.5443C25.2401 21.9163 24.9749 22.0253 24.616 22.0253C22.3329 22.0253 20.0501 22.0309 17.767 22.0423C17.0611 22.0423 16.3549 22.0423 15.591 22.0423C15.643 22.2423 15.691 22.3883 15.716 22.5422C15.7639 22.8422 15.9361 22.9332 16.2281 22.9322C18.0959 22.9232 19.9638 22.9322 21.8277 22.9322C22.5596 22.9322 23.2922 22.9322 24.0272 22.9322C24.4911 22.9322 24.7582 23.1552 24.7532 23.5202C24.7482 23.8851 24.4864 24.0841 24.0145 24.0841L16.213 24.0691ZM13.7982 19.7505C13.5082 18.2786 13.5862 18.5766 13.2982 17.1047C13.1812 16.5048 13.0605 15.9048 12.9525 15.3048C12.9498 15.2473 12.9351 15.1909 12.9101 15.1389C12.8851 15.087 12.8498 15.0406 12.8066 15.0026C12.7633 14.9645 12.7128 14.9355 12.6581 14.9174C12.6034 14.8992 12.5457 14.8923 12.4882 14.8969C11.9163 14.8719 11.3435 14.8219 10.7726 14.7739C10.6901 14.7769 10.6077 14.7627 10.5309 14.7324C10.4541 14.7021 10.3846 14.6563 10.3263 14.5979C10.2681 14.5394 10.2221 14.4695 10.1921 14.3926C10.162 14.3157 10.1483 14.2334 10.1516 14.1509C10.1599 14.069 10.1849 13.9897 10.2253 13.9179C10.2656 13.8461 10.3207 13.7834 10.3864 13.7337C10.4521 13.684 10.527 13.6483 10.6071 13.6289C10.6871 13.6095 10.7705 13.6068 10.8517 13.621C11.1676 13.637 11.4834 13.665 11.7993 13.689C12.1153 13.713 12.4084 13.729 12.7123 13.757C13.0333 13.7719 13.3398 13.8953 13.5814 14.1072C13.823 14.319 13.9855 14.6066 14.0423 14.9229C14.4662 17.0517 14.5132 17.4117 14.9201 19.5435C14.9409 19.6204 14.9456 19.7009 14.9338 19.7797C14.922 19.8585 14.8938 19.934 14.8513 20.0015C14.8088 20.069 14.7532 20.1269 14.6872 20.1716C14.6213 20.2164 14.5464 20.2469 14.468 20.2614C14.4315 20.2686 14.3945 20.2723 14.3572 20.2724C14.2175 20.2652 14.085 20.2089 13.9827 20.1134C13.8805 20.0179 13.8149 19.8894 13.7982 19.7505Z" fill="#0A194E"/>
</svg>
